<svg xmlns="http://www.w3.org/2000/svg" xmlns:xlink="http://www.w3.org/1999/xlink" width="338" height="150" version="1.1" viewBox="0 0 338 150"><title>contribute-button-white</title><desc>Created with Sketch.</desc><defs><linearGradient id="linearGradient-1" x1="50%" x2="50%" y1="100%" y2="0%"><stop offset="0%" stop-color="#FFF"/><stop offset="100%" stop-color="#F3F6F8"/></linearGradient><rect id="path-2" width="334" height="48" x="0" y="0" rx="24"/><filter id="filter-3" width="101.2%" height="108.3%" x="-.6%" y="-4.2%" filterUnits="objectBoundingBox"><feOffset dx="0" dy="2" in="SourceAlpha" result="shadowOffsetInner1"/><feComposite in="shadowOffsetInner1" in2="SourceAlpha" k2="-1" k3="1" operator="arithmetic" result="shadowInnerInner1"/><feColorMatrix in="shadowInnerInner1" type="matrix" values="0 0 0 0 0 0 0 0 0 0 0 0 0 0 0 0 0 0 0.05 0"/></filter><linearGradient id="linearGradient-4" x1="50%" x2="50%" y1="0%" y2="100%"><stop offset="0%" stop-color="#FFF"/><stop offset="100%" stop-color="#F3F6F8"/></linearGradient><rect id="path-5" width="334" height="48" x="0" y="0" rx="24"/><filter id="filter-6" width="104.2%" height="129.2%" x="-2.1%" y="-14.6%" filterUnits="objectBoundingBox"><feMorphology in="SourceAlpha" operator="dilate" radius="1" result="shadowSpreadOuter1"/><feOffset dx="0" dy="0" in="shadowSpreadOuter1" result="shadowOffsetOuter1"/><feGaussianBlur in="shadowOffsetOuter1" result="shadowBlurOuter1" stdDeviation="2"/><feComposite in="shadowBlurOuter1" in2="SourceAlpha" operator="out" result="shadowBlurOuter1"/><feColorMatrix in="shadowBlurOuter1" type="matrix" values="0 0 0 0 0.247058824 0 0 0 0 0.68627451 0 0 0 0 0.941176471 0 0 0 0.4 0"/></filter><rect id="path-7" width="334" height="48" x="0" y="0" rx="24"/></defs><g id="Widgets-&amp;-Symbols" fill="none" fill-rule="evenodd" stroke="none" stroke-width="1"><g id="contribute" transform="translate(-95.000000, 0.000000)"><g id="::-white"><g id="contribute-button-white" transform="translate(96.000000, 1.000000)"><g id="contribute-button-white-pressed" transform="translate(1.000000, 100.000000)"><g id="::-bg"><g id="div"><use fill="url(#linearGradient-1)" fill-rule="evenodd" xlink:href="#path-2"/><use fill="#000" fill-opacity="1" filter="url(#filter-3)" xlink:href="#path-2"/><rect width="335" height="49" x="-.5" y="-.5" stroke="#000" stroke-opacity=".15" stroke-width="1" rx="24.5"/></g></g><g id="::-symbol" transform="translate(287.000000, 2.000000)"><circle id="circle" cx="22" cy="22" r="22" fill="#FFF"/><g id="::-oc-symbol" transform="translate(8.000000, 8.000000)"><path id="3/4-circle" fill="#3FAFF0" d="M25.5090496,6.02648429 C27.0795729,8.2891249 28,11.0370738 28,14 C28,16.9629262 27.0795729,19.7108751 25.5090496,21.9735157 L21.8824995,18.3469656 C22.5946547,17.0583408 23,15.5765071 23,14 C23,12.4234929 22.5946547,10.9416592 21.8824995,9.65303443 L25.5090496,6.02648429 Z M21.9735157,2.49095039 L18.3469656,6.11750053 C17.0583408,5.40534531 15.5765071,5 14,5 C9.02943725,5 5,9.02943725 5,14 C5,18.9705627 9.02943725,23 14,23 C15.5765071,23 17.0583408,22.5946547 18.3469656,21.8824995 L21.9735157,25.5090496 C19.7108751,27.0795729 16.9629262,28 14,28 C6.2680135,28 0,21.7319865 0,14 C0,6.2680135 6.2680135,0 14,0 C16.9629262,0 19.7108751,0.920427138 21.9735157,2.49095039 Z"/><path id="1/4-circle" fill="#B8D5E6" d="M25.5090496,6.02648429 C27.0795729,8.2891249 28,11.0370738 28,14 C28,16.9629262 27.0795729,19.7108751 25.5090496,21.9735157 L21.8824995,18.3469656 C22.5946547,17.0583408 23,15.5765071 23,14 C23,12.4234929 22.5946547,10.9416592 21.8824995,9.65303443 L25.5090496,6.02648429 Z"/></g></g><g id="::-label-copy" fill="#22A5E6" font-family="Montserrat-Regular, Montserrat" font-size="12" font-weight="normal" letter-spacing="2" transform="translate(18.000000, 17.000000)"><text id="CONTRIBUTE-TO-OUR-COLLECTIVE"><tspan x=".188" y="12">CONTRIBUTE TO OUR COLLECTIVE</tspan></text></g></g><g id="contribute-button-white-hover" transform="translate(2.000000, 50.000000)"><g id="::-bg"><g id="div"><use fill="#000" fill-opacity="1" filter="url(#filter-6)" xlink:href="#path-5"/><use fill="url(#linearGradient-4)" fill-rule="evenodd" xlink:href="#path-5"/><rect width="335" height="49" x="-.5" y="-.5" stroke="#3FAFF0" stroke-width="1" rx="24.5"/></g></g><g id="::-symbol" transform="translate(286.000000, 2.000000)"><circle id="circle" cx="22" cy="22" r="22" fill="#FFF"/><g id="::-oc-symbol" transform="translate(8.000000, 8.000000)"><path id="3/4-circle" fill="#3FAFF0" d="M25.5090496,6.02648429 C27.0795729,8.2891249 28,11.0370738 28,14 C28,16.9629262 27.0795729,19.7108751 25.5090496,21.9735157 L21.8824995,18.3469656 C22.5946547,17.0583408 23,15.5765071 23,14 C23,12.4234929 22.5946547,10.9416592 21.8824995,9.65303443 L25.5090496,6.02648429 Z M21.9735157,2.49095039 L18.3469656,6.11750053 C17.0583408,5.40534531 15.5765071,5 14,5 C9.02943725,5 5,9.02943725 5,14 C5,18.9705627 9.02943725,23 14,23 C15.5765071,23 17.0583408,22.5946547 18.3469656,21.8824995 L21.9735157,25.5090496 C19.7108751,27.0795729 16.9629262,28 14,28 C6.2680135,28 0,21.7319865 0,14 C0,6.2680135 6.2680135,0 14,0 C16.9629262,0 19.7108751,0.920427138 21.9735157,2.49095039 Z"/><path id="1/4-circle" fill="#B8D5E6" d="M25.5090496,6.02648429 C27.0795729,8.2891249 28,11.0370738 28,14 C28,16.9629262 27.0795729,19.7108751 25.5090496,21.9735157 L21.8824995,18.3469656 C22.5946547,17.0583408 23,15.5765071 23,14 C23,12.4234929 22.5946547,10.9416592 21.8824995,9.65303443 L25.5090496,6.02648429 Z"/></g></g><g id="::-label" fill="#22A5E6" font-family="Montserrat-Regular, Montserrat" font-size="12" font-weight="normal" letter-spacing="2" transform="translate(17.000000, 17.000000)"><text id="CONTRIBUTE-TO-OUR-COLLECTIVE"><tspan x=".188" y="12">CONTRIBUTE TO OUR COLLECTIVE</tspan></text></g></g><g><g id="::-bg"><g id="div"><use fill="url(#linearGradient-4)" fill-rule="evenodd" xlink:href="#path-7"/><rect width="335" height="49" x="-.5" y="-.5" stroke="#000" stroke-opacity=".15" stroke-width="1" rx="24.5"/></g></g><g id="::-symbol" transform="translate(288.000000, 2.000000)"><circle id="circle" cx="22" cy="22" r="22" fill="#FFF"/><g id="::-oc-symbol" transform="translate(8.000000, 8.000000)"><path id="3/4-circle" fill="#3FAFF0" d="M25.5090496,6.02648429 C27.0795729,8.2891249 28,11.0370738 28,14 C28,16.9629262 27.0795729,19.7108751 25.5090496,21.9735157 L21.8824995,18.3469656 C22.5946547,17.0583408 23,15.5765071 23,14 C23,12.4234929 22.5946547,10.9416592 21.8824995,9.65303443 L25.5090496,6.02648429 Z M21.9735157,2.49095039 L18.3469656,6.11750053 C17.0583408,5.40534531 15.5765071,5 14,5 C9.02943725,5 5,9.02943725 5,14 C5,18.9705627 9.02943725,23 14,23 C15.5765071,23 17.0583408,22.5946547 18.3469656,21.8824995 L21.9735157,25.5090496 C19.7108751,27.0795729 16.9629262,28 14,28 C6.2680135,28 0,21.7319865 0,14 C0,6.2680135 6.2680135,0 14,0 C16.9629262,0 19.7108751,0.920427138 21.9735157,2.49095039 Z"/><path id="1/4-circle" fill="#B8D5E6" d="M25.5090496,6.02648429 C27.0795729,8.2891249 28,11.0370738 28,14 C28,16.9629262 27.0795729,19.7108751 25.5090496,21.9735157 L21.8824995,18.3469656 C22.5946547,17.0583408 23,15.5765071 23,14 C23,12.4234929 22.5946547,10.9416592 21.8824995,9.65303443 L25.5090496,6.02648429 Z"/></g></g><g id="::-label" fill="#22A5E6" font-family="Montserrat-Regular, Montserrat" font-size="12" font-weight="normal" letter-spacing="2" transform="translate(19.000000, 17.000000)"><text id="CONTRIBUTE-TO-OUR-COLLECTIVE"><tspan x=".188" y="12">CONTRIBUTE TO OUR COLLECTIVE</tspan></text></g></g></g></g></g></g></svg>