<svg xmlns="http://www.w3.org/2000/svg" xmlns:xlink="http://www.w3.org/1999/xlink" width="334" height="148" version="1.1" viewBox="0 0 334 148"><title>contribute-button-blue</title><desc>Created with Sketch.</desc><defs><linearGradient id="linearGradient-1" x1="50%" x2="50%" y1="100%" y2="0%"><stop offset="0%" stop-color="#52BBF8"/><stop offset="100%" stop-color="#2FA8EE"/></linearGradient><rect id="path-2" width="334" height="48" x="0" y="0" rx="24"/><filter id="filter-3" width="100.6%" height="104.2%" x="-.3%" y="-2.1%" filterUnits="objectBoundingBox"><feOffset dx="0" dy="2" in="SourceAlpha" result="shadowOffsetInner1"/><feComposite in="shadowOffsetInner1" in2="SourceAlpha" k2="-1" k3="1" operator="arithmetic" result="shadowInnerInner1"/><feColorMatrix in="shadowInnerInner1" type="matrix" values="0 0 0 0 0 0 0 0 0 0 0 0 0 0 0 0 0 0 0.1 0"/></filter><linearGradient id="linearGradient-4" x1="50%" x2="50%" y1="3.911%" y2="100%"><stop offset="0%" stop-color="#7ACFFF"/><stop offset="100%" stop-color="#4CBEFF"/></linearGradient><linearGradient id="linearGradient-5" x1="50%" x2="50%" y1="1.074%" y2="100%"><stop offset="0%" stop-color="#52BBF8"/><stop offset="100%" stop-color="#2FA8EE"/></linearGradient></defs><g id="Widgets-&amp;-Symbols" fill="none" fill-rule="evenodd" stroke="none" stroke-width="1"><g id="contribute" transform="translate(-97.000000, -301.000000)"><g id="::-blue" transform="translate(0.000000, 300.000000)"><g id="contribute-button-blue" transform="translate(97.000000, 1.000000)"><g id="contribute-button-blue-pressed" transform="translate(0.000000, 100.000000)"><g id="::-bg"><g id="div"><use fill="url(#linearGradient-1)" fill-rule="evenodd" xlink:href="#path-2"/><use fill="#000" fill-opacity="1" filter="url(#filter-3)" xlink:href="#path-2"/></g></g><g id="::-symbol" transform="translate(287.000000, 2.000000)"><circle id="circle" cx="22" cy="22" r="22" fill="#FFF"/><g id="::-oc-symbol" transform="translate(8.000000, 8.000000)"><path id="3/4-circle" fill="#3FAFF0" d="M25.5090496,6.02648429 C27.0795729,8.2891249 28,11.0370738 28,14 C28,16.9629262 27.0795729,19.7108751 25.5090496,21.9735157 L21.8824995,18.3469656 C22.5946547,17.0583408 23,15.5765071 23,14 C23,12.4234929 22.5946547,10.9416592 21.8824995,9.65303443 L25.5090496,6.02648429 Z M21.9735157,2.49095039 L18.3469656,6.11750053 C17.0583408,5.40534531 15.5765071,5 14,5 C9.02943725,5 5,9.02943725 5,14 C5,18.9705627 9.02943725,23 14,23 C15.5765071,23 17.0583408,22.5946547 18.3469656,21.8824995 L21.9735157,25.5090496 C19.7108751,27.0795729 16.9629262,28 14,28 C6.2680135,28 0,21.7319865 0,14 C0,6.2680135 6.2680135,0 14,0 C16.9629262,0 19.7108751,0.920427138 21.9735157,2.49095039 Z"/><path id="1/4-circle" fill="#B8D5E6" d="M25.5090496,6.02648429 C27.0795729,8.2891249 28,11.0370738 28,14 C28,16.9629262 27.0795729,19.7108751 25.5090496,21.9735157 L21.8824995,18.3469656 C22.5946547,17.0583408 23,15.5765071 23,14 C23,12.4234929 22.5946547,10.9416592 21.8824995,9.65303443 L25.5090496,6.02648429 Z"/></g></g><g id="::-label" fill="#FFF" font-family="Montserrat-Regular, Montserrat" font-size="12" font-weight="normal" letter-spacing="2" transform="translate(18.000000, 17.000000)"><text id="CONTRIBUTE-TO-OUR-CO"><tspan x=".188" y="12">CONTRIBUTE TO OUR COLLECTIVE</tspan></text></g></g><g id="contribute-button-blue-hover" transform="translate(0.000000, 50.000000)"><g id="::-bg" fill="url(#linearGradient-4)"><rect id="div" width="334" height="48" x="0" y="0" rx="24"/></g><g id="::-symbol" transform="translate(287.000000, 2.000000)"><circle id="circle" cx="22" cy="22" r="22" fill="#FFF"/><g id="::-oc-symbol" transform="translate(8.000000, 8.000000)"><path id="3/4-circle" fill="#3FAFF0" d="M25.5090496,6.02648429 C27.0795729,8.2891249 28,11.0370738 28,14 C28,16.9629262 27.0795729,19.7108751 25.5090496,21.9735157 L21.8824995,18.3469656 C22.5946547,17.0583408 23,15.5765071 23,14 C23,12.4234929 22.5946547,10.9416592 21.8824995,9.65303443 L25.5090496,6.02648429 Z M21.9735157,2.49095039 L18.3469656,6.11750053 C17.0583408,5.40534531 15.5765071,5 14,5 C9.02943725,5 5,9.02943725 5,14 C5,18.9705627 9.02943725,23 14,23 C15.5765071,23 17.0583408,22.5946547 18.3469656,21.8824995 L21.9735157,25.5090496 C19.7108751,27.0795729 16.9629262,28 14,28 C6.2680135,28 0,21.7319865 0,14 C0,6.2680135 6.2680135,0 14,0 C16.9629262,0 19.7108751,0.920427138 21.9735157,2.49095039 Z"/><path id="1/4-circle" fill="#B8D5E6" d="M25.5090496,6.02648429 C27.0795729,8.2891249 28,11.0370738 28,14 C28,16.9629262 27.0795729,19.7108751 25.5090496,21.9735157 L21.8824995,18.3469656 C22.5946547,17.0583408 23,15.5765071 23,14 C23,12.4234929 22.5946547,10.9416592 21.8824995,9.65303443 L25.5090496,6.02648429 Z"/></g></g><g id="::-label" fill="#FFF" font-family="Montserrat-Regular, Montserrat" font-size="12" font-weight="normal" letter-spacing="2" transform="translate(54.000000, 17.000000)"><text id="CONTRIBUTE-TO-OUR-CO"><tspan x="-35.812" y="12">CONTRIBUTE TO OUR COLLECTIVE</tspan></text></g></g><g><g id="::-bg" fill="url(#linearGradient-5)"><rect id="div" width="334" height="48" x="0" y="0" rx="24"/></g><g id="::-symbol" transform="translate(287.000000, 2.000000)"><circle id="circle" cx="22" cy="22" r="22" fill="#FFF"/><g id="::-oc-symbol" transform="translate(8.000000, 8.000000)"><path id="3/4-circle" fill="#3FAFF0" d="M25.5090496,6.02648429 C27.0795729,8.2891249 28,11.0370738 28,14 C28,16.9629262 27.0795729,19.7108751 25.5090496,21.9735157 L21.8824995,18.3469656 C22.5946547,17.0583408 23,15.5765071 23,14 C23,12.4234929 22.5946547,10.9416592 21.8824995,9.65303443 L25.5090496,6.02648429 Z M21.9735157,2.49095039 L18.3469656,6.11750053 C17.0583408,5.40534531 15.5765071,5 14,5 C9.02943725,5 5,9.02943725 5,14 C5,18.9705627 9.02943725,23 14,23 C15.5765071,23 17.0583408,22.5946547 18.3469656,21.8824995 L21.9735157,25.5090496 C19.7108751,27.0795729 16.9629262,28 14,28 C6.2680135,28 0,21.7319865 0,14 C0,6.2680135 6.2680135,0 14,0 C16.9629262,0 19.7108751,0.920427138 21.9735157,2.49095039 Z"/><path id="1/4-circle" fill="#B8D5E6" d="M25.5090496,6.02648429 C27.0795729,8.2891249 28,11.0370738 28,14 C28,16.9629262 27.0795729,19.7108751 25.5090496,21.9735157 L21.8824995,18.3469656 C22.5946547,17.0583408 23,15.5765071 23,14 C23,12.4234929 22.5946547,10.9416592 21.8824995,9.65303443 L25.5090496,6.02648429 Z"/></g></g><g id="::-label" fill="#FFF" font-family="Montserrat-Regular, Montserrat" font-size="12" font-weight="normal" letter-spacing="2" transform="translate(54.000000, 17.000000)"><text id="CONTRIBUTE-TO-OUR-CO"><tspan x="-35.812" y="12">CONTRIBUTE TO OUR COLLECTIVE</tspan></text></g></g></g></g></g></g></svg>