<svg xmlns="http://www.w3.org/2000/svg" xmlns:xlink="http://www.w3.org/1999/xlink" width="550" height="631" version="1.1" viewBox="0 0 550 631"><title>:: kapaow</title><desc>Created with Sketch.</desc><defs><radialGradient id="radialGradient-1" cx="50%" cy="52.014%" r="44.437%" fx="50%" fy="52.014%"><stop offset="0%" stop-color="#FFF" stop-opacity="0"/><stop offset="100%" stop-color="#FFF"/></radialGradient></defs><g id="Page-1" fill="none" fill-rule="evenodd" stroke="none" stroke-width="1"><g id="ticket-aquired" transform="translate(-237.000000, -40.000000)"><g id="::-kapaow" transform="translate(237.000000, 40.000000)"><g id="Star" transform="translate(-81.000000, -79.000000)"><polygon fill="#F1F1F1" points="355.272 441.258 308.568 710.022 333.017 438.328 218.343 685.846 312.279 429.738 137.45 639.143 294.47 416.073 71.401 573.093 280.805 398.265 24.697 492.2 272.215 377.527 .522 401.976 269.285 355.272 .522 308.568 272.215 333.017 24.697 218.343 280.805 312.279 71.401 137.45 294.47 294.47 137.45 71.401 312.279 280.805 218.343 24.697 333.017 272.215 308.568 .522 355.272 269.285 401.976 .522 377.527 272.215 492.2 24.697 398.265 280.805 573.093 71.401 416.073 294.47 639.143 137.45 429.738 312.279 685.846 218.343 438.328 333.017 710.022 308.568 441.258 355.272 710.022 401.976 438.328 377.527 685.846 492.2 429.738 398.265 639.143 573.093 416.073 416.073 573.093 639.143 398.265 429.738 492.2 685.846 377.527 438.328 401.976 710.022"/><polygon fill="url(#radialGradient-1)" points="355.272 441.258 308.568 710.022 333.017 438.328 218.343 685.846 312.279 429.738 137.45 639.143 294.47 416.073 71.401 573.093 280.805 398.265 24.697 492.2 272.215 377.527 .522 401.976 269.285 355.272 .522 308.568 272.215 333.017 24.697 218.343 280.805 312.279 71.401 137.45 294.47 294.47 137.45 71.401 312.279 280.805 218.343 24.697 333.017 272.215 308.568 .522 355.272 269.285 401.976 .522 377.527 272.215 492.2 24.697 398.265 280.805 573.093 71.401 416.073 294.47 639.143 137.45 429.738 312.279 685.846 218.343 438.328 333.017 710.022 308.568 441.258 355.272 710.022 401.976 438.328 377.527 685.846 492.2 429.738 398.265 639.143 573.093 416.073 416.073 573.093 639.143 398.265 429.738 492.2 685.846 377.527 438.328 401.976 710.022"/></g></g></g></g></svg>