<svg xmlns="http://www.w3.org/2000/svg" width="432" height="256" fill="none" viewBox="0 0 432 256"><g filter="url(#filter0_d)"><rect width="400" height="224" x="16" y="8" fill="#fff" rx="16"/></g><mask id="mask0" width="400" height="224" x="16" y="8" mask-type="alpha" maskUnits="userSpaceOnUse"><rect width="400" height="224" x="16" y="8" fill="#fff" rx="16"/></mask><mask id="mask1" width="401" height="191" x="16" y="8" mask-type="alpha" maskUnits="userSpaceOnUse"><path fill="url(#paint0_linear)" d="M16 33.5722C16 24.6299 16 20.1587 17.7439 16.7362C19.2779 13.7256 21.7256 11.2779 24.7362 9.7439C28.1587 8 32.6392 8 41.6 8H390.4C399.361 8 403.841 8 407.264 9.7439C410.275 11.2779 412.722 13.7256 414.256 16.7362C416 20.1587 416 24.6316 416 33.5773C416 61.7263 416 106.841 416 136C183 114 262 214 16 196C16 154.046 16 74.4191 16 33.5722Z"/></mask><g mask="url(#mask1)"><path fill="url(#paint1_linear)" d="M16 33.5722C16 24.6299 16 20.1587 17.7439 16.7362C19.2779 13.7256 21.7256 11.2779 24.7362 9.7439C28.1587 8 32.6392 8 41.6 8H390.4C399.361 8 403.841 8 407.264 9.7439C410.275 11.2779 412.722 13.7256 414.256 16.7362C416 20.1587 416 24.6316 416 33.5773C416 61.7263 416 106.841 416 136C183 114 262 214 16 196C16 154.046 16 74.4191 16 33.5722Z"/><path fill="#fff" fill-opacity=".48" d="M16 193C204.5 196 168.5 87 416 132.5C416 133.5 416 134 416 136C183 114 262 214 16 196C16 138 16 195.5 16 193Z" opacity=".4"/><path fill="#fff" fill-opacity=".48" d="M16 139.5C163.5 139.5 240.5 193 416 171C416 165 416 197 416 201C405.5 201 61 201 16 201C16 143 16 142 16 139.5Z" opacity=".24"/></g><defs><filter id="filter0_d" width="432" height="256" x="0" y="0" color-interpolation-filters="sRGB" filterUnits="userSpaceOnUse"><feFlood flood-opacity="0" result="BackgroundImageFix"/><feColorMatrix in="SourceAlpha" type="matrix" values="0 0 0 0 0 0 0 0 0 0 0 0 0 0 0 0 0 0 127 0"/><feOffset dy="8"/><feGaussianBlur stdDeviation="8"/><feColorMatrix type="matrix" values="0 0 0 0 0.0768 0 0 0 0 0.07808 0 0 0 0 0.08 0 0 0 0.12 0"/><feBlend in2="BackgroundImageFix" mode="normal" result="effect1_dropShadow"/><feBlend in="SourceGraphic" in2="effect1_dropShadow" mode="normal" result="shape"/></filter><linearGradient id="paint0_linear" x1="16" x2="163.5" y1="8" y2="318.232" gradientUnits="userSpaceOnUse"><stop stop-color="#145ECC"/><stop offset="1" stop-color="#66A3FF"/></linearGradient><linearGradient id="paint1_linear" x1="16" x2="163.5" y1="8" y2="318.232" gradientUnits="userSpaceOnUse"><stop stop-color="#145ECC"/><stop offset="1" stop-color="#66A3FF"/></linearGradient></defs></svg>