<svg xmlns="http://www.w3.org/2000/svg" xmlns:xlink="http://www.w3.org/1999/xlink" width="2484" height="1239" version="1.1" viewBox="0 0 2484 1239"><title>:: hero</title><desc>Created with Sketch.</desc><defs><linearGradient id="linearGradient-1" x1="33.107%" x2="107.501%" y1="100%" y2="0%"><stop offset="0%" stop-color="#FEFEFF"/><stop offset="62.353%" stop-color="#EBF1FA"/><stop offset="100%" stop-color="#EBF1FA"/></linearGradient><linearGradient id="linearGradient-2" x1="0%" x2="177.328%" y1="100%" y2="-2.227%"><stop offset="0%" stop-color="#FEFEFF"/><stop offset="100%" stop-color="#EBF1FA"/></linearGradient><path id="path-3" d="M2049.83745,143.88742 L1860.88115,332.981783 C1793.74368,295.846068 1716.54216,274.709072 1634.41071,274.709072 C1375.44358,274.709072 1165.49862,484.823652 1165.49862,744 C1165.49862,1003.17635 1375.44358,1213.29093 1634.41071,1213.29093 C1716.54216,1213.29093 1793.74368,1192.15393 1860.88115,1155.01822 L2049.83745,1344.11258 C1931.94214,1426.00384 1788.78458,1474 1634.41071,1474 C1231.57133,1474 905,1147.16483 905,744 C905,340.83517 1231.57133,14 1634.41071,14 C1788.78458,14 1931.94214,61.9961607 2049.83745,143.88742 Z M2235.12158,327.867011 C2317.00716,445.82901 2365,589.067538 2365,743.528728 C2365,897.989918 2317.00716,1041.24304 2235.12158,1159.19045 L2046.04031,970.141857 C2083.17346,902.966417 2104.30899,825.706635 2104.30899,743.528728 C2104.30899,661.350822 2083.17346,584.105633 2046.04031,516.930193 L2235.12158,327.867011 Z"/><filter id="filter-4" width="119.2%" height="119.2%" x="-6.8%" y="-6.8%" filterUnits="objectBoundingBox"><feOffset dx="40" dy="40" in="SourceAlpha" result="shadowOffsetOuter1"/><feGaussianBlur in="shadowOffsetOuter1" result="shadowBlurOuter1" stdDeviation="40"/><feColorMatrix in="shadowBlurOuter1" type="matrix" values="0 0 0 0 0.305882353 0 0 0 0 0.474509804 0 0 0 0 0.733333333 0 0 0 0.12 0"/></filter></defs><g id="Homepage" fill="none" fill-rule="evenodd" stroke="none" stroke-width="1"><g id="Homepage---XL,-L,-M-(hd-desktop,-desktop,-hd-laptop,-laptop)"><g id="BACKGROUND" transform="translate(0.000000, -353.000000)"><g id="::-hero"><path id="base" fill="url(#linearGradient-1)" d="M1643,1480 C2051.69071,1480 2383,1148.69071 2383,740 C2383,331.309285 2051.69071,0 1643,0 C1471.63682,0 923.970152,0 0,0 L0,1480 C822.872857,1480 1370.53952,1480 1643,1480 Z"/><g id="symbol"><use fill="#000" fill-opacity="1" filter="url(#filter-4)" xlink:href="#path-3"/><use fill="url(#linearGradient-2)" fill-rule="evenodd" xlink:href="#path-3"/></g></g></g></g></g></svg>