<svg xmlns="http://www.w3.org/2000/svg" xmlns:xlink="http://www.w3.org/1999/xlink" width="309" height="200" version="1.1" viewBox="0 0 309 200"><title>graphic-no-subscription</title><desc>Created with Sketch.</desc><defs><rect id="path-1" width="80" height="96" x="136" y="21" rx="8"/><mask id="mask-2" width="80" height="96" x="0" y="0" fill="#fff" maskContentUnits="userSpaceOnUse" maskUnits="objectBoundingBox"><use xlink:href="#path-1"/></mask><rect id="path-3" width="80" height="96" x="10" y="21" rx="8"/><mask id="mask-4" width="80" height="96" x="0" y="0" fill="#fff" maskContentUnits="userSpaceOnUse" maskUnits="objectBoundingBox"><use xlink:href="#path-3"/></mask><rect id="path-5" width="80" height="96" x="73" y="0" rx="8"/><mask id="mask-6" width="80" height="96" x="0" y="0" fill="#fff" maskContentUnits="userSpaceOnUse" maskUnits="objectBoundingBox"><use xlink:href="#path-5"/></mask></defs><g id="M-::-User-›-Subscriptions-(empty-state)-USER" fill="none" fill-rule="evenodd" stroke="none" stroke-width="1" transform="translate(-638.000000, -344.000000)"><g id="::-empty-state" transform="translate(575.000000, 344.000000)"><g id="graphic-no-subscription" transform="translate(63.000000, 0.000000)"><g id="ovals" opacity=".64"><ellipse id="Oval" cx="232.892" cy="153.195" fill="#E7EEFA" rx="46.429" ry="46.332"/><ellipse id="Oval" cx="29.205" cy="144.975" fill="#E7EEFA" rx="29.205" ry="29.144"/><ellipse id="Oval" cx="237.01" cy="34.002" fill="#E7EEFA" rx="16.849" ry="16.814"/><ellipse id="Oval" cx="195.075" cy="8.594" fill="#E7EEFA" rx="8.612" ry="8.594"/><ellipse id="Oval" cx="303.758" cy="193.769" fill="#E7EDF6" rx="5.242" ry="5.231"/><ellipse id="Oval" cx="14.228" cy="54.552" fill="#E7EEFA" rx="5.242" ry="5.231"/><ellipse id="Oval" cx="55" cy="188.983" fill="#DEE6F4" rx="8" ry="7.983"/><ellipse id="Oval" cx="86.931" cy="76.838" fill="#E7EEFA" rx="44.931" ry="44.838"/><ellipse id="Oval" cx="141.532" cy="118.072" fill="#DBE7F9" rx="78.629" ry="78.466"/></g><g id="cards" fill="#FFF" stroke="#D5DAE0" stroke-dasharray="2 2" stroke-width="4" transform="translate(50.000000, 56.000000)"><use id="card-right" mask="url(#mask-2)" transform="translate(176.000000, 69.000000) rotate(12.000000) translate(-176.000000, -69.000000)" xlink:href="#path-1"/><use id="card-left" mask="url(#mask-4)" transform="translate(50.000000, 69.000000) rotate(-12.000000) translate(-50.000000, -69.000000)" xlink:href="#path-3"/><use id="card-center" mask="url(#mask-6)" xlink:href="#path-5"/></g><g id="face" transform="translate(139.000000, 81.000000)"><circle id="Oval-2" cx="24" cy="24" r="24" fill="#D5DAE0" opacity=".455"/><circle id="Oval-3" cx="24" cy="37.2" r="2.4" fill="#C2C6CC"/><path id="Combined-Shape" fill="#C2C6CC" d="M11.3621226,30 C13.6607995,30 15.6,28.5612465 15.6,26.3064307 C15.6,24.8809655 13.2155466,25.0556538 13.2155466,26.0895908 C13.2155466,28.1067206 9.63455271,28.1283015 9.63455271,26.0895908 C9.65219288,24.9417224 7.2,24.7933783 7.2,26.3064307 C7.2,28.5612465 9.06344578,30 11.3621226,30 Z"/><path id="Combined-Shape" fill="#C2C6CC" d="M36.5621226,30 C38.8607995,30 40.8,28.5612465 40.8,26.3064307 C40.8,24.8809655 38.4155466,25.0556538 38.4155466,26.0895908 C38.4155466,28.1067206 34.8345527,28.1283015 34.8345527,26.0895908 C34.8521929,24.9417224 32.4,24.7933783 32.4,26.3064307 C32.4,28.5612465 34.2634458,30 36.5621226,30 Z"/></g></g></g></g></svg>