<svg xmlns="http://www.w3.org/2000/svg" width="400" height="224" fill="none" viewBox="0 0 400 224"><rect width="400" height="224" fill="#fff" rx="16"/><mask id="mask0" width="400" height="224" x="0" y="0" mask-type="alpha" maskUnits="userSpaceOnUse"><rect width="400" height="224" fill="#fff" rx="16"/></mask><mask id="mask1" width="401" height="192" x="0" y="0" mask-type="alpha" maskUnits="userSpaceOnUse"><path fill="url(#paint0_linear)" d="M8.31997e-07 15.9635C4.07575e-07 7.12699 7.16344 0 16 0H384C392.837 0 400 7.12949 400 15.966C400 42.5123 400 96.0789 400 129.225C167 107.014 246 207.971 0 189.799C6.0838e-06 143.746 2.59787e-06 52.7294 8.31997e-07 15.9635Z"/></mask><g mask="url(#mask1)"><path fill="url(#paint1_linear)" d="M8.31997e-07 15.9635C4.07575e-07 7.12699 7.16344 0 16 0H384C392.837 0 400 7.13565 400 15.9722C400 42.1298 400 94.4879 400 127.5C167 105.29 246 207.971 0 189.799C6.0838e-06 143.746 2.59787e-06 52.7294 8.31997e-07 15.9635Z"/><path fill="#fff" fill-opacity=".48" d="M0 186.604C188.5 189.729 152.5 76.1912 400 123.585C400 124.627 400 125.148 400 127.231C167 104.315 246 208.478 0 189.729C7.73536e-06 129.314 0 189.208 0 186.604Z" opacity=".4"/><path fill="#fff" fill-opacity=".48" d="M0 128C147.5 128 224.5 183.675 400 160.78C400 154.537 400 187.837 400 192C389.5 192 45 192 0 192C7.73536e-06 131.642 0 130.602 0 128Z" opacity=".24"/></g><defs><linearGradient id="paint0_linear" x1="0" x2="149.805" y1="0" y2="312.094" gradientUnits="userSpaceOnUse"><stop stop-color="#145ECC"/><stop offset="1" stop-color="#66A3FF"/></linearGradient><linearGradient id="paint1_linear" x1="0" x2="149.763" y1="0" y2="312.06" gradientUnits="userSpaceOnUse"><stop stop-color="#145ECC"/><stop offset="1" stop-color="#66A3FF"/></linearGradient></defs></svg>