<svg xmlns="http://www.w3.org/2000/svg" xmlns:xlink="http://www.w3.org/1999/xlink" width="369" height="169" version="1.1" viewBox="0 0 369 169"><title>:: ticket</title><desc>Created with Sketch.</desc><defs><rect id="path-1" width="345" height="145" x="0" y="0"/><filter id="filter-2" width="200%" height="200%" x="-50%" y="-50%" filterUnits="objectBoundingBox"><feOffset dx="0" dy="1" in="SourceAlpha" result="shadowOffsetOuter1"/><feGaussianBlur in="shadowOffsetOuter1" result="shadowBlurOuter1" stdDeviation="6"/><feColorMatrix in="shadowBlurOuter1" type="matrix" values="0 0 0 0 0.180392157 0 0 0 0 0.301960784 0 0 0 0 0.380392157 0 0 0 0.3 0"/></filter><path id="path-3" d="M323,137 L21,137 C21,129.820298 15.1797017,124 8,124 L8,21 C15.1797017,21 21,15.1797017 21,8 L324,8 C324,15.1797017 329.820298,21 337,21 L337,124.03789 C336.669958,124.012783 336.336472,124 336,124 C328.820298,124 323,129.820298 323,137 Z"/><mask id="mask-4" width="329" height="129" x="0" y="0" fill="#fff" maskContentUnits="userSpaceOnUse" maskUnits="objectBoundingBox"><use xlink:href="#path-3"/></mask></defs><g id="Page-1" fill="none" fill-rule="evenodd" stroke="none" stroke-width="1"><g id="ticket-aquired" transform="translate(-320.000000, -248.000000)"><g id="::-Tickets" transform="translate(332.000000, 218.000000)"><g id="::-ticket" transform="translate(0.000000, 41.000000)"><g id="Rectangle-20"><use fill="#000" fill-opacity="1" filter="url(#filter-2)" xlink:href="#path-1"/><use fill="#FFF" fill-rule="evenodd" xlink:href="#path-1"/></g><use id="Combined-Shape" fill="#FFF" stroke="#3385FF" stroke-width="2" mask="url(#mask-4)" opacity=".43" xlink:href="#path-3"/></g></g></g></g></svg>