<svg xmlns="http://www.w3.org/2000/svg" xmlns:xlink="http://www.w3.org/1999/xlink" width="762" height="400" version="1.1" viewBox="0 0 762 400"><title>:: confetti</title><desc>Created with Sketch.</desc><defs><linearGradient id="linearGradient-1" x1="50%" x2="50%" y1="19.394%" y2="100%"><stop offset="0%" stop-color="#FFF"/><stop offset="100%" stop-color="#FFF" stop-opacity="0"/></linearGradient><rect id="path-2" width="768" height="400" x="0" y="0"/></defs><g id="::-email-template-m-›-welcome-email" fill="none" fill-rule="evenodd" stroke="none" stroke-width="1" transform="translate(0.000000, -92.000000)"><g id="::-intro" transform="translate(0.000000, 92.000000)"><g id="::-bg-header"><g id="::-confetti"><mask id="mask-3" fill="#fff"><use xlink:href="#path-2"/></mask><use id="mask" fill="url(#linearGradient-1)" xlink:href="#path-2"/><g id="::-shapes" stroke="#39F" stroke-width="4" mask="url(#mask-3)" opacity=".12"><g transform="translate(-1404.000000, 0.000000)"><path id="Stroke-16" stroke-linecap="round" stroke-linejoin="round" d="M1996.08322,163.164882 C1996.54327,170.373274 2002.57998,175.833966 2009.56821,175.36174 C2016.55644,174.889514 2021.85035,168.662612 2021.39254,161.451906 L1996.08322,163.164882 Z"/><polyline id="Stroke-30" stroke-linecap="round" stroke-linejoin="round" points="1924.142 293.866 1922.376 282.908 1933.951 281.233 1932.689 269.624 1944.258 267.963 1942.729 256.697"/><path id="Stroke-32" d="M2087.56693,314.290942 C2091.43638,310.485251 2091.51495,304.234146 2087.73934,300.329406 C2083.96591,296.426867 2077.7678,296.347628 2073.89616,300.155519 C2070.0267,303.96121 2069.94814,310.212315 2073.72375,314.117055 C2077.49936,318.019594 2083.69747,318.098833 2087.56693,314.290942 Z"/><polyline id="Stroke-34" stroke-linecap="round" stroke-linejoin="round" points="2131.981 223.014 2138.445 217.205 2143.854 224.147 2150.929 218.396 2156.326 225.336 2163.077 219.555"/><polygon id="Stroke-2" stroke-linejoin="round" points="2127.075 80.145 2106.644 83.932 2110.396 104.537 2130.83 100.751"/><polyline id="Stroke-5" stroke-linecap="round" stroke-linejoin="round" points="1913.162 262.505 1915.29 254.667 1923.239 256.765 1925.884 248.632 1933.824 250.737 1936.196 242.759"/><polygon id="Stroke-6-Copy-2" stroke-linecap="round" stroke-linejoin="round" points="1853.099 193.159 1864.023 193.071 1869.408 202.478 1863.87 211.975 1852.947 212.064 1847.561 202.656"/><path id="Path-2-Copy" stroke-linecap="round" stroke-linejoin="round" d="M2041.75214,49.9035772 C2025.93592,36.3003312 2021.90367,22.7569816 2029.65539,9.27352849 L2041.75214,49.9035772 Z"/><path id="Path-3-Copy" stroke-linecap="round" stroke-linejoin="round" d="M1860.69633,27.6196916 C1837.92738,40.8777469 1829.69252,17.2424967 1843.25037,13.0176929 L1860.69633,27.6196916 Z"/><ellipse id="Oval-2-Copy" cx="1940.803" cy="87.114" rx="11.517" ry="11.615"/><ellipse id="Oval-Copy-2" cx="1953.471" cy="81.307" rx="5.758" ry="5.808"/><path id="Path-3-Copy" stroke-linecap="round" stroke-linejoin="round" d="M2040.63753,385.466916 C2017.86858,398.724972 2009.63372,375.089721 2023.19157,370.864918 L2040.63753,385.466916 Z"/><polyline id="Stroke-12" stroke-linecap="round" stroke-linejoin="round" points="1935.044 391.434 1945.161 398.618 1937.94 408.685 1948.206 416.757 1940.982 426.809 1951.168 434.41"/><path id="Path-6" stroke-linecap="round" stroke-linejoin="round" d="M1860.18523,364.712236 C1865.81876,343.286166 1868.34302,380.1305 1882.06711,359.175566"/><path id="Stroke-8" stroke-linecap="round" stroke-linejoin="round" d="M1396.1751,208.912886 C1389.47054,212.370955 1386.73102,220.827255 1390.05836,227.796893 C1393.38569,234.768153 1401.51692,237.615021 1408.22148,234.156952 L1396.1751,208.912886 Z"/><polyline id="Stroke-12" stroke-linecap="round" stroke-linejoin="round" points="1549.878 24.23 1559.995 31.415 1552.773 41.482 1563.039 49.554 1555.816 59.605 1566.001 67.207"/><polygon id="Stroke-38" stroke-linejoin="round" points="1523.389 298.35 1540.205 290.677 1542.968 269.312 1526.152 276.985"/><path id="Path-2" stroke-linecap="round" stroke-linejoin="round" d="M1416.28322,118.67428 C1436.68002,116.655867 1448.96458,123.117737 1453.13691,138.059891"/><ellipse id="Oval-2" cx="1564.85" cy="215.882" rx="6.91" ry="6.969"/><path id="Path-6" stroke-linecap="round" stroke-linejoin="round" d="M1466.95705,7.96268965 C1472.59057,-13.4633802 1475.11483,23.3809534 1488.83893,2.42601998"/><polyline id="Stroke-12" stroke-linecap="round" stroke-linejoin="round" points="1721.478 392.434 1731.595 399.618 1724.373 409.685 1734.639 417.757 1727.416 427.809 1737.601 435.41"/><polygon id="Stroke-2" stroke-linejoin="round" points="1424.046 376.172 1403.615 379.959 1407.367 400.564 1427.8 396.778"/><polygon id="Stroke-6-Copy" stroke-linecap="round" stroke-linejoin="round" points="1537.785 397.08 1548.726 403.178 1548.726 415.374 1537.785 421.472 1526.844 415.374 1526.844 403.178"/><polygon id="Stroke-6-Copy-3" stroke-linecap="round" stroke-linejoin="round" points="1556.725 121.951 1567.649 121.862 1573.034 131.27 1567.497 140.766 1556.573 140.855 1551.188 131.447"/><path id="Path-6" stroke-linecap="round" stroke-linejoin="round" d="M1647.77047,365.712236 C1653.404,344.286166 1655.92825,381.1305 1669.65235,360.175566"/><polyline id="Stroke-34" stroke-linecap="round" stroke-linejoin="round" points="1653.529 148.515 1659.993 142.706 1665.402 149.648 1672.476 143.897 1677.874 150.837 1684.624 145.056"/><ellipse id="Oval" cx="1775.936" cy="121.857" rx="9.789" ry="9.873"/><ellipse id="Oval-Copy" cx="1785.149" cy="110.241" rx="14.396" ry="14.519"/><path id="Stroke-8" stroke-linecap="round" stroke-linejoin="round" d="M1688.70127,12.615245 C1681.99671,16.0733141 1679.2572,24.5296142 1682.58453,31.4992528 C1685.91186,38.4705125 1694.04309,41.3173804 1700.74765,37.8593113 L1688.70127,12.615245 Z"/><path id="Path-3-Copy" stroke-linecap="round" stroke-linejoin="round" d="M1767.70679,249.718155 C1744.93783,262.976211 1736.70298,239.34096 1750.26082,235.116157 L1767.70679,249.718155 Z"/><path id="Stroke-16" stroke-linecap="round" stroke-linejoin="round" d="M1645.46711,275.671235 C1645.92716,282.879626 1651.96388,288.340318 1658.9521,287.868092 C1665.94033,287.395866 1671.23424,281.168964 1670.77644,273.958258 L1645.46711,275.671235 Z"/><polygon id="compressed-hexagon" points="1759.318 319.488 1766.742 319.039 1770.069 324.85 1765.97 331.11 1758.546 331.559 1755.219 325.749"/><path id="Stroke-32" d="M1432.90787,317.613991 C1436.77732,313.8083 1436.85589,307.557195 1433.08028,303.652455 C1429.30685,299.749916 1423.10874,299.670677 1419.2371,303.478568 C1415.36764,307.284259 1415.28908,313.535364 1419.06469,317.440104 C1422.8403,321.342643 1429.03841,321.421882 1432.90787,317.613991 Z"/></g></g></g></g></g></g></svg>